<svg xml:space="preserve" style="enable-background:new 0 0 1024 1024;" viewBox="0 0 1024 1024" y="0px" x="0px" xmlns:xlink="http://www.w3.org/1999/xlink" xmlns="http://www.w3.org/2000/svg" id="图层_1" version="1.1">
<style type="text/css">
	.st0{fill:#FFCB8D;stroke:#26282B;stroke-width:16;stroke-linecap:round;stroke-linejoin:round;stroke-miterlimit:10;}
	.st1{fill:#52CE90;stroke:#26282B;stroke-width:16;stroke-linecap:round;stroke-linejoin:round;stroke-miterlimit:10;}
	.st2{fill:#FF5F5F;stroke:#26282B;stroke-width:16;stroke-linecap:round;stroke-linejoin:round;stroke-miterlimit:10;}
	.st3{fill:#FFCB8D;}
	.st4{fill:none;stroke:#26282B;stroke-width:16;stroke-linecap:round;stroke-linejoin:round;stroke-miterlimit:10;}
</style>
<g>
	<path d="M903.15,406.91c-13.66-56.38-44.83-85.83-200.57-87.92l-0.15,0c-14.21-0.15-23.21-15.37-16.43-27.86
		c14.82-27.31,22.66-58.27,21.42-90.81C703.48,96.29,608.44,15.45,495.16,19.75c-113.29,4.29-201.93,92.1-197.99,196.12
		c1.23,32.48,11.35,62.69,28.12,88.76c7.88,12.24-0.32,28.4-14.86,29.11c-2.76,0.14-4.82,0.25-5.74,0.34
		c-155.14,13.87-177.69,45.36-187.04,102.61c-8.19,50.14,51.91,102.81,125.52,137.57c23.06,10.89,35.64,36.18,30.69,61.19
		l-50.79,256.78c0,0-26.78,99.05,149.58,108.12c0,0,76.92,12.08,135.02-127.12c7.19-17.22,31.15-18.13,39.62-1.5
		c68.47,134.4,144.26,116.54,144.26,116.54c175.16-22.39,140.96-119.13,140.96-119.13l-70.08-252.2
		c-6.83-24.57,3.8-50.74,25.97-63.34C859.17,513.36,915.11,456.29,903.15,406.91z" class="st0"></path>
	<circle r="23.62" cy="168.26" cx="433.11" class="st0"></circle>
	<circle r="23.62" cy="163.49" cx="558.97" class="st0"></circle>
	<path d="M431.42,240.28c0,0,1.49,39.27,49.18,48.08c16.52,3.05,33.62,1.85,49.49-3.67
		c17.47-6.08,37.61-18.79,33.7-44.76" class="st0"></path>
	<g>
		<g>
			<path d="M515.57,385.75l73.37-26.83c18.43-6.74,38.08,6.45,38.83,26.06l1.46,38.6
				c0.46,12.01-10.64,21.16-22.35,18.42l-89.98-21.05L515.57,385.75z" class="st1"></path>
			<path d="M502.51,386.24l-75.19-21.2c-18.89-5.33-37.49,9.31-36.74,28.93l1.46,38.6
				c0.46,12.01,12.21,20.29,23.68,16.68l88.13-27.8L502.51,386.24z" class="st1"></path>
		</g>
		<circle r="25.83" cy="403.6" cx="509.7" class="st1"></circle>
	</g>
	<g>
		<circle r="26.96" cy="500.15" cx="515.27" class="st2"></circle>
		<circle r="26.96" cy="613.1" cx="519.55" class="st2"></circle>
		<circle r="26.96" cy="726.05" cx="523.83" class="st2"></circle>
	</g>
	<g>
		<path d="M722.97,320.12c5.56,16.27-19.28,24.75-13.72,41.02c5.56,16.27,30.39,7.79,35.94,24.07
			c5.56,16.27-19.28,24.75-13.72,41.02c5.56,16.27,30.39,7.79,35.95,24.07c5.56,16.27-19.28,24.75-13.72,41.02
			c5.56,16.27,30.39,7.8,35.95,24.07c5.56,16.27-19.28,24.75-13.72,41.03" class="st3"></path>
		<path d="M722.97,320.12c5.56,16.27-19.28,24.75-13.72,41.02c5.56,16.27,30.39,7.79,35.94,24.07
			c5.56,16.27-19.28,24.75-13.72,41.02c5.56,16.27,30.39,7.79,35.95,24.07c5.56,16.27-19.28,24.75-13.72,41.02
			c5.56,16.27,30.39,7.8,35.95,24.07c5.56,16.27-19.28,24.75-13.72,41.03" class="st4"></path>
	</g>
	<g>
		<path d="M242.85,799.82c16.29,4.31,8.48,33.84,24.77,38.15c16.29,4.31,24.1-25.22,40.39-20.91
			c16.29,4.31,8.48,33.84,24.77,38.15c16.29,4.31,24.1-25.22,40.39-20.91c16.29,4.31,8.48,33.84,24.78,38.15
			c16.29,4.31,24.1-25.22,40.39-20.91c16.29,4.31,8.48,33.84,24.78,38.15c16.29,4.31,24.1-25.22,40.4-20.91" class="st3"></path>
		<path d="M242.85,799.82c16.29,4.31,8.48,33.84,24.77,38.15c16.29,4.31,24.1-25.22,40.39-20.91
			c16.29,4.31,8.48,33.84,24.77,38.15c16.29,4.31,24.1-25.22,40.39-20.91c16.29,4.31,8.48,33.84,24.78,38.15
			c16.29,4.31,24.1-25.22,40.39-20.91c16.29,4.31,8.48,33.84,24.78,38.15c16.29,4.31,24.1-25.22,40.4-20.91" class="st4"></path>
	</g>
	<g>
		<path d="M816.42,807.31c-15.92,5.53-25.94-23.32-41.86-17.79c-15.92,5.53-5.89,34.38-21.81,39.91
			c-15.92,5.53-25.94-23.32-41.86-17.79c-15.92,5.53-5.9,34.38-21.82,39.91c-15.92,5.53-25.94-23.32-41.86-17.79
			c-15.92,5.53-5.9,34.38-21.82,39.91c-15.92,5.53-25.94-23.32-41.87-17.79s-5.9,34.38-21.82,39.91" class="st3"></path>
		<path d="M816.42,807.31c-15.92,5.53-25.94-23.32-41.86-17.79c-15.92,5.53-5.89,34.38-21.81,39.91
			c-15.92,5.53-25.94-23.32-41.86-17.79c-15.92,5.53-5.9,34.38-21.82,39.91c-15.92,5.53-25.94-23.32-41.86-17.79
			c-15.92,5.53-5.9,34.38-21.82,39.91c-15.92,5.53-25.94-23.32-41.87-17.79s-5.9,34.38-21.82,39.91" class="st4"></path>
	</g>
	<g>
		<path d="M304.69,335.67c-4.31,16.56-29.71,9.94-34.02,26.49c-4.32,16.56,21.08,23.18,16.76,39.73
			c-4.32,16.56-29.71,9.94-34.02,26.5c-4.32,16.56,21.08,23.18,16.76,39.74c-4.32,16.56-29.71,9.94-34.02,26.5
			c-4.32,16.56,21.08,23.18,16.76,39.74c-4.32,16.56-29.71,9.94-34.02,26.5" class="st3"></path>
		<path d="M304.69,335.67c-4.31,16.56-29.71,9.94-34.02,26.49c-4.32,16.56,21.08,23.18,16.76,39.73
			c-4.32,16.56-29.71,9.94-34.02,26.5c-4.32,16.56,21.08,23.18,16.76,39.74c-4.32,16.56-29.71,9.94-34.02,26.5
			c-4.32,16.56,21.08,23.18,16.76,39.74c-4.32,16.56-29.71,9.94-34.02,26.5" class="st4"></path>
	</g>
</g>
</svg>
